<svg xmlns="http://www.w3.org/2000/svg" viewBox="0 0 64 64" role="img" aria-label="Harshit Sharma favicon">
  <defs>
    <radialGradient id="halo" cx="50%" cy="42%" r="62%">
      <stop offset="0%" stop-color="#2B2B2B"/>
      <stop offset="58%" stop-color="#0C0C0C"/>
      <stop offset="100%" stop-color="#000000"/>
    </radialGradient>
    <linearGradient id="mark" x1="18" y1="9" x2="46" y2="55" gradientUnits="userSpaceOnUse">
      <stop offset="0%" stop-color="#FFFFFF"/>
      <stop offset="48%" stop-color="#D7E2EA"/>
      <stop offset="100%" stop-color="#858F99"/>
    </linearGradient>
    <linearGradient id="gold" x1="18" y1="50" x2="49" y2="39" gradientUnits="userSpaceOnUse">
      <stop offset="0%" stop-color="#F0D58A"/>
      <stop offset="100%" stop-color="#B88A35"/>
    </linearGradient>
    <filter id="softGlow" x="-30%" y="-30%" width="160%" height="160%">
      <feGaussianBlur stdDeviation="1.6" result="blur"/>
      <feMerge>
        <feMergeNode in="blur"/>
        <feMergeNode in="SourceGraphic"/>
      </feMerge>
    </filter>
  </defs>
  <rect width="64" height="64" rx="16" fill="url(#halo)"/>
  <path d="M10 33.5C18 24.5 26 20 34 20c6.7 0 11.9 3.1 17 8.6" fill="none" stroke="#FFFFFF" stroke-opacity="0.13" stroke-width="1.2"/>
  <path d="M12 43.5C19.7 48 28 48.9 36.7 46.1c5.4-1.7 10-4.8 14-9.1" fill="none" stroke="url(#gold)" stroke-width="1.4" stroke-linecap="round" opacity="0.9"/>
  <circle cx="50.6" cy="36.9" r="2.2" fill="#D9B86F" filter="url(#softGlow)"/>
  <circle cx="14.2" cy="42.8" r="1.25" fill="#F4F7F8" opacity="0.85"/>
  <path d="M18 17h8.2v12.1h11.6V17H46v30h-8.2V35.6H26.2V47H18V17Z" fill="url(#mark)"/>
  <path d="M20.6 19.8h2.6v24.4h-2.6V19.8Z" fill="#FFFFFF" opacity="0.18"/>
  <rect x="0.75" y="0.75" width="62.5" height="62.5" rx="15.25" fill="none" stroke="#FFFFFF" stroke-opacity="0.12" stroke-width="1.5"/>
</svg>
